<svg width="225" height="225" viewBox="0 0 225 225" fill="none" xmlns="http://www.w3.org/2000/svg">
<path d="M112.067 112.067C96.658 112.067 83.4668 106.581 72.4935 95.6074C61.5203 84.6341 56.0336 71.4429 56.0336 56.0336C56.0336 40.6244 61.5203 27.4331 72.4935 16.4599C83.4668 5.48663 96.658 0 112.067 0C127.477 0 140.668 5.48663 151.641 16.4599C162.614 27.4331 168.101 40.6244 168.101 56.0336C168.101 71.4429 162.614 84.6341 151.641 95.6074C140.668 106.581 127.477 112.067 112.067 112.067ZM0 224.135V184.911C0 176.973 2.04289 169.677 6.12868 163.023C10.2145 156.369 15.6427 151.291 22.4135 147.789C36.8888 140.551 51.5976 135.123 66.5399 131.504C81.4822 127.885 96.658 126.076 112.067 126.076C127.477 126.076 142.652 127.885 157.595 131.504C172.537 135.123 187.246 140.551 201.721 147.789C208.492 151.291 213.92 156.369 218.006 163.023C222.092 169.677 224.135 176.973 224.135 184.911V224.135H0ZM28.0168 196.118H196.118V184.911C196.118 182.343 195.476 180.008 194.192 177.907C192.907 175.805 191.215 174.171 189.113 173.004C176.506 166.7 163.782 161.972 150.941 158.82C138.1 155.668 125.142 154.092 112.067 154.092C98.9927 154.092 86.035 155.668 73.1939 158.82C60.3529 161.972 47.6286 166.7 35.021 173.004C32.9198 174.171 31.2271 175.805 29.943 177.907C28.6589 180.008 28.0168 182.343 28.0168 184.911V196.118ZM112.067 84.0504C119.772 84.0504 126.368 81.3071 131.854 75.8205C137.341 70.3339 140.084 63.7383 140.084 56.0336C140.084 48.329 137.341 41.7334 131.854 36.2467C126.368 30.7601 119.772 28.0168 112.067 28.0168C104.363 28.0168 97.767 30.7601 92.2804 36.2467C86.7938 41.7334 84.0504 48.329 84.0504 56.0336C84.0504 63.7383 86.7938 70.3339 92.2804 75.8205C97.767 81.3071 104.363 84.0504 112.067 84.0504Z" fill="#D6FDE5"/>
</svg>
