<svg width="119" height="95" viewBox="0 0 119 95" fill="none" xmlns="http://www.w3.org/2000/svg">
    <path d="M99.9083 92.0003C108.796 92.0003 116 84.8628 116 76.0582C116 67.2537 108.796 60.1162 99.9083 60.1162C91.021 60.1162 83.8164 67.2537 83.8164 76.0582C83.8164 84.8628 91.021 92.0003 99.9083 92.0003Z" stroke="#D6FDE5" stroke-width="6" stroke-linecap="round" stroke-linejoin="round"/>
    <path d="M93.4717 76.0576H106.345" stroke="#D6FDE5" stroke-width="6" stroke-linecap="round" stroke-linejoin="round"/>
    <path d="M99.9082 69.6816V82.4353" stroke="#D6FDE5" stroke-width="6" stroke-linecap="round" stroke-linejoin="round"/>
    <path d="M80.5038 58.6604C73.7976 52.0166 64.7019 48.2842 55.2178 48.2842C45.7337 48.2842 36.6381 52.0166 29.9318 58.6604C23.2255 65.3042 19.458 74.3152 19.458 83.7109" stroke="#D6FDE5" stroke-width="8" stroke-linecap="round" stroke-linejoin="round"/>
    <path d="M55.218 48.2834C67.5615 48.2834 77.5679 38.3702 77.5679 26.1417C77.5679 13.9132 67.5615 4 55.218 4C42.8745 4 32.8682 13.9132 32.8682 26.1417C32.8682 38.3702 42.8745 48.2834 55.218 48.2834Z" stroke="#D6FDE5" stroke-width="8" stroke-linecap="round" stroke-linejoin="round"/>
    <path d="M88.9129 43.6244C91.8515 41.4402 94.2014 38.572 95.7545 35.2737C97.3076 31.9754 98.016 28.3487 97.8171 24.7145C97.6182 21.0803 96.5182 17.5507 94.6142 14.4381C92.7102 11.3254 90.0612 8.72578 86.9014 6.86914" stroke="#D6FDE5" stroke-width="8" stroke-linecap="round" stroke-linejoin="round"/>
    <path d="M96.6787 51.5299C94.7747 48.4172 92.1256 45.8176 88.9658 43.9609" stroke="#D6FDE5" stroke-width="8" stroke-linecap="round" stroke-linejoin="round"/>
    <path d="M4.00021 79.2845C4.00021 64.361 12.9402 50.5003 21.8801 43.8578C18.9415 41.6736 16.5916 38.8054 15.0385 35.5071C13.4854 32.2088 12.777 28.5821 12.9758 24.9479C13.1747 21.3137 14.2748 17.7841 16.1788 14.6715C18.0827 11.5588 20.7318 8.95918 23.8916 7.10254" stroke="#D6FDE5" stroke-width="8" stroke-linecap="round" stroke-linejoin="round"/>
</svg>