<svg width="104" height="139" viewBox="0 0 104 139" fill="none" xmlns="http://www.w3.org/2000/svg">
<path d="M69.16 110.786L76.44 103.506L57.2 84.2662V60.3462H46.8V88.4262L69.16 110.786ZM52 138.346C44.8067 138.346 38.0467 136.981 31.72 134.251C25.3933 131.521 19.89 127.816 15.21 123.136C10.53 118.456 6.825 112.953 4.095 106.626C1.365 100.3 0 93.5395 0 86.3462C0 79.1529 1.365 72.3929 4.095 66.0662C6.825 59.7395 10.53 54.2362 15.21 49.5562C19.89 44.8762 25.3933 41.1712 31.72 38.4412C38.0467 35.7112 44.8067 34.3462 52 34.3462C59.1933 34.3462 65.9533 35.7112 72.28 38.4412C78.6067 41.1712 84.11 44.8762 88.79 49.5562C93.47 54.2362 97.175 59.7395 99.905 66.0662C102.635 72.3929 104 79.1529 104 86.3462C104 93.5395 102.635 100.3 99.905 106.626C97.175 112.953 93.47 118.456 88.79 123.136C84.11 127.816 78.6067 131.521 72.28 134.251C65.9533 136.981 59.1933 138.346 52 138.346ZM52 127.946C63.5267 127.946 73.3417 123.895 81.445 115.791C89.5483 107.688 93.6 97.8729 93.6 86.3462C93.6 74.8195 89.5483 65.0045 81.445 56.9012C73.3417 48.7979 63.5267 44.7462 52 44.7462C40.4733 44.7462 30.6583 48.7979 22.555 56.9012C14.4517 65.0045 10.4 74.8195 10.4 86.3462C10.4 97.8729 14.4517 107.688 22.555 115.791C30.6583 123.895 40.4733 127.946 52 127.946Z" fill="#D45D5C"/>
<path d="M27 10.3462L43 22.0962" stroke="#82C397" stroke-width="6.69091" stroke-linecap="round" stroke-linejoin="round"/>
<path d="M46 3.34619L43 22.0962" stroke="#82C397" stroke-width="6.69091" stroke-linecap="round" stroke-linejoin="round"/>
<path d="M64 10.3462L43 22.0962" stroke="#82C397" stroke-width="6.69091" stroke-linecap="round" stroke-linejoin="round"/>
<path d="M32 39.689L42.6207 22.3464" stroke="#82C397" stroke-width="6.69091" stroke-linecap="round" stroke-linejoin="round"/>
<path d="M63.3491 32.2285L43.0001 17.3463" stroke="#82C397" stroke-width="6.69091" stroke-linecap="round" stroke-linejoin="round"/>
</svg>
